<svg xmlns="http://www.w3.org/2000/svg" xmlns:xlink="http://www.w3.org/1999/xlink" width="500" zoomAndPan="magnify" viewBox="0 0 375 374.999991" height="500" preserveAspectRatio="xMidYMid meet" version="1.0"><defs><g/><clipPath id="704a915b26"><path d="M 37.5 118.820312 L 111 118.820312 L 111 236 L 37.5 236 Z M 37.5 118.820312 " clip-rule="nonzero"/></clipPath><clipPath id="4b05141afb"><path d="M 47.210938 150.0625 L 124.460938 150.0625 L 124.460938 255.320312 L 47.210938 255.320312 Z M 47.210938 150.0625 " clip-rule="nonzero"/></clipPath></defs><path fill="#61b1e6" d="M 83.191406 126.105469 C 83.804688 126.105469 84.296875 125.605469 84.296875 124.992188 C 84.296875 124.378906 83.804688 123.882812 83.191406 123.882812 L 64.667969 123.882812 C 64.054688 123.882812 63.558594 124.378906 63.558594 124.992188 C 63.558594 125.605469 64.054688 126.105469 64.667969 126.105469 L 83.191406 126.105469 " fill-opacity="1" fill-rule="nonzero"/><path fill="#61b1e6" d="M 105.09375 184.070312 C 105.703125 184.070312 106.199219 183.574219 106.199219 182.960938 L 106.199219 133.300781 C 106.199219 130.996094 104.328125 129.125 102.027344 129.125 L 45.832031 129.125 C 43.53125 129.125 41.660156 130.996094 41.660156 133.300781 L 41.660156 215.785156 C 41.660156 218.089844 43.53125 219.960938 45.832031 219.960938 L 59.0625 219.960938 C 59.671875 219.960938 60.167969 219.464844 60.167969 218.851562 C 60.167969 218.238281 59.671875 217.738281 59.0625 217.738281 L 45.832031 217.738281 C 44.75 217.738281 43.875 216.863281 43.875 215.785156 L 43.875 133.300781 C 43.875 132.222656 44.75 131.347656 45.832031 131.347656 L 102.027344 131.347656 C 103.109375 131.347656 103.988281 132.222656 103.988281 133.300781 L 103.988281 182.960938 C 103.988281 183.574219 104.484375 184.070312 105.09375 184.070312 " fill-opacity="1" fill-rule="nonzero"/><g clip-path="url(#704a915b26)"><path fill="#61b1e6" d="M 69.484375 233.597656 L 45.261719 233.597656 C 42.226562 233.597656 39.757812 231.089844 39.757812 228 L 39.757812 126.636719 C 39.757812 123.550781 42.226562 121.039062 45.261719 121.039062 L 102.597656 121.039062 C 105.632812 121.039062 108.101562 123.550781 108.101562 126.636719 L 108.101562 184.027344 C 108.101562 184.640625 108.597656 185.136719 109.210938 185.136719 C 109.820312 185.136719 110.316406 184.640625 110.316406 184.027344 L 110.316406 126.636719 C 110.316406 122.328125 106.851562 118.820312 102.597656 118.820312 L 45.261719 118.820312 C 41.007812 118.820312 37.542969 122.328125 37.542969 126.636719 L 37.542969 228 C 37.542969 232.3125 41.007812 235.820312 45.261719 235.820312 L 69.484375 235.820312 C 70.09375 235.820312 70.589844 235.324219 70.589844 234.707031 C 70.589844 234.09375 70.09375 233.597656 69.484375 233.597656 " fill-opacity="1" fill-rule="nonzero"/></g><g clip-path="url(#4b05141afb)"><path fill="#61b1e6" d="M 117.050781 189.3125 C 115 189.3125 113.132812 190.164062 111.785156 191.546875 C 111.1875 188.011719 108.136719 185.3125 104.480469 185.3125 C 102.3125 185.3125 100.359375 186.261719 99 187.769531 C 98.125 184.613281 95.257812 182.292969 91.867188 182.292969 C 89.839844 182.292969 88.003906 183.121094 86.664062 184.457031 L 86.664062 157.640625 C 86.664062 153.527344 83.339844 150.179688 79.25 150.179688 C 75.164062 150.179688 71.839844 153.527344 71.839844 157.640625 L 71.839844 204.023438 L 68.011719 198.738281 C 66.023438 196.011719 63.101562 194.238281 59.785156 193.738281 C 56.492188 193.238281 53.21875 194.066406 50.570312 196.054688 L 47.722656 198.144531 C 47.226562 198.503906 47.121094 199.199219 47.480469 199.695312 L 70.984375 232.054688 C 71.242188 232.425781 71.527344 232.773438 71.839844 233.09375 L 71.839844 254.207031 C 71.839844 254.824219 72.332031 255.320312 72.945312 255.320312 C 73.554688 255.320312 74.050781 254.824219 74.050781 254.207031 L 74.050781 232.621094 C 74.050781 232.304688 73.917969 232.007812 73.683594 231.796875 C 73.355469 231.5 73.058594 231.160156 72.785156 230.765625 L 49.917969 199.28125 L 51.882812 197.84375 C 54.066406 196.207031 56.757812 195.527344 59.457031 195.933594 C 62.1875 196.34375 64.589844 197.804688 66.222656 200.046875 L 72.050781 208.089844 C 72.332031 208.476562 72.828125 208.636719 73.285156 208.492188 C 73.742188 208.34375 74.050781 207.917969 74.050781 207.4375 L 74.050781 157.640625 C 74.050781 154.75 76.382812 152.398438 79.25 152.398438 C 82.121094 152.398438 84.453125 154.75 84.453125 157.640625 L 84.453125 189.800781 C 84.453125 190.414062 84.949219 190.910156 85.558594 190.910156 C 86.171875 190.910156 86.664062 190.414062 86.664062 189.800781 C 86.664062 186.886719 88.996094 184.515625 91.867188 184.515625 C 94.734375 184.515625 97.066406 186.886719 97.066406 189.800781 L 97.066406 192.820312 C 97.066406 193.433594 97.5625 193.933594 98.171875 193.933594 C 98.78125 193.933594 99.277344 193.433594 99.277344 192.820312 C 99.277344 189.90625 101.609375 187.535156 104.480469 187.535156 C 107.347656 187.535156 109.679688 189.90625 109.679688 192.820312 L 109.679688 196.332031 C 109.679688 196.929688 110.152344 197.417969 110.75 197.441406 C 111.335938 197.433594 111.851562 197 111.890625 196.402344 C 112.070312 193.671875 114.339844 191.535156 117.050781 191.535156 C 119.917969 191.535156 122.25 193.90625 122.25 196.820312 L 122.25 230 C 122.25 233.996094 119.46875 237.5 115.632812 238.332031 C 115.125 238.441406 114.761719 238.894531 114.761719 239.417969 L 114.761719 254.207031 C 114.761719 254.824219 115.253906 255.320312 115.867188 255.320312 C 116.476562 255.320312 116.972656 254.824219 116.972656 254.207031 L 116.972656 240.273438 C 121.363281 238.910156 124.464844 234.726562 124.464844 230 L 124.464844 196.820312 C 124.464844 192.679688 121.136719 189.3125 117.050781 189.3125 " fill-opacity="1" fill-rule="nonzero"/></g><path fill="#61b1e6" d="M 62.058594 165.792969 L 62.054688 165.789062 C 60.617188 163.046875 59.859375 159.90625 59.859375 156.707031 C 59.859375 151.476562 61.875 146.546875 65.539062 142.832031 C 65.96875 142.394531 65.964844 141.691406 65.53125 141.261719 C 65.097656 140.828125 64.398438 140.835938 63.96875 141.269531 C 59.890625 145.402344 57.648438 150.886719 57.648438 156.707031 C 57.648438 160.261719 58.492188 163.757812 60.09375 166.8125 C 60.09375 166.816406 60.09375 166.816406 60.09375 166.816406 C 60.09375 166.816406 60.09375 166.820312 60.097656 166.820312 C 61.714844 169.957031 64.074219 172.671875 66.921875 174.675781 C 67.117188 174.8125 67.335938 174.875 67.554688 174.875 C 67.902344 174.875 68.25 174.710938 68.464844 174.402344 C 68.8125 173.898438 68.691406 173.207031 68.191406 172.855469 C 65.628906 171.054688 63.507812 168.613281 62.058594 165.792969 " fill-opacity="1" fill-rule="nonzero"/><path fill="#61b1e6" d="M 69.570312 171.898438 C 69.921875 171.898438 70.265625 171.734375 70.480469 171.421875 C 70.828125 170.917969 70.703125 170.226562 70.203125 169.878906 C 68.136719 168.441406 66.410156 166.457031 65.210938 164.148438 C 64.058594 161.851562 63.453125 159.28125 63.453125 156.707031 C 63.453125 156.09375 62.957031 155.597656 62.347656 155.597656 C 61.734375 155.597656 61.238281 156.09375 61.238281 156.707031 C 61.238281 159.632812 61.933594 162.554688 63.242188 165.160156 C 63.242188 165.160156 63.246094 165.160156 63.246094 165.160156 C 63.246094 165.167969 63.246094 165.167969 63.246094 165.171875 C 64.617188 167.804688 66.582031 170.0625 68.941406 171.703125 C 69.132812 171.835938 69.351562 171.898438 69.570312 171.898438 " fill-opacity="1" fill-rule="nonzero"/><path fill="#61b1e6" d="M 66.511719 145.367188 C 66.726562 145.582031 67.011719 145.691406 67.296875 145.691406 C 67.578125 145.691406 67.859375 145.585938 68.074219 145.367188 C 71.101562 142.339844 75.074219 140.675781 79.25 140.675781 C 79.863281 140.675781 80.355469 140.175781 80.355469 139.5625 C 80.355469 138.949219 79.863281 138.453125 79.25 138.453125 C 74.484375 138.453125 69.960938 140.351562 66.515625 143.796875 C 66.082031 144.226562 66.082031 144.929688 66.511719 145.367188 " fill-opacity="1" fill-rule="nonzero"/><path fill="#61b1e6" d="M 88.1875 172.386719 C 88.382812 172.386719 88.582031 172.335938 88.765625 172.226562 C 91.335938 170.640625 93.5 168.351562 95.023438 165.601562 C 95.023438 165.597656 95.023438 165.597656 95.023438 165.597656 C 95.023438 165.597656 95.027344 165.59375 95.027344 165.59375 C 96.511719 162.875 97.265625 159.882812 97.265625 156.707031 C 97.265625 151.832031 95.390625 147.25 91.992188 143.800781 C 91.566406 143.367188 90.863281 143.363281 90.429688 143.792969 C 89.996094 144.222656 89.992188 144.925781 90.421875 145.363281 C 93.410156 148.390625 95.050781 152.421875 95.050781 156.707031 C 95.050781 159.503906 94.390625 162.132812 93.085938 164.523438 C 91.75 166.9375 89.855469 168.949219 87.609375 170.332031 C 87.085938 170.652344 86.925781 171.335938 87.242188 171.859375 C 87.449219 172.199219 87.8125 172.386719 88.1875 172.386719 " fill-opacity="1" fill-rule="nonzero"/><path fill="#61b1e6" d="M 90.070312 175.496094 C 90.273438 175.496094 90.476562 175.441406 90.664062 175.324219 C 93.757812 173.355469 96.339844 170.59375 98.132812 167.328125 L 98.136719 167.324219 C 99.941406 164.011719 100.855469 160.441406 100.855469 156.707031 C 100.855469 156.09375 100.359375 155.597656 99.746094 155.597656 C 99.136719 155.597656 98.640625 156.09375 98.640625 156.707031 C 98.640625 160.0625 97.820312 163.273438 96.195312 166.257812 C 94.582031 169.195312 92.257812 171.679688 89.480469 173.449219 C 88.964844 173.777344 88.808594 174.464844 89.136719 174.980469 C 89.347656 175.3125 89.703125 175.496094 90.070312 175.496094 " fill-opacity="1" fill-rule="nonzero"/><path fill="#61b1e6" d="M 92.960938 142.832031 C 93.179688 143.050781 93.464844 143.160156 93.75 143.160156 C 94.03125 143.160156 94.3125 143.054688 94.527344 142.839844 C 94.960938 142.40625 94.964844 141.703125 94.535156 141.269531 C 90.457031 137.132812 85.027344 134.855469 79.25 134.855469 C 78.640625 134.855469 78.144531 135.351562 78.144531 135.964844 C 78.144531 136.578125 78.640625 137.074219 79.25 137.074219 C 84.433594 137.074219 89.300781 139.121094 92.960938 142.832031 " fill-opacity="1" fill-rule="nonzero"/><path fill="#61b1e6" d="M 79.25 144.9375 C 82.371094 144.9375 85.296875 146.160156 87.488281 148.382812 C 89.648438 150.578125 90.890625 153.609375 90.890625 156.707031 C 90.890625 157.75 90.75 158.742188 90.449219 159.832031 C 90.285156 160.421875 90.632812 161.035156 91.21875 161.199219 C 91.316406 161.226562 91.414062 161.242188 91.515625 161.242188 C 92 161.242188 92.445312 160.917969 92.582031 160.429688 C 92.933594 159.15625 93.101562 157.941406 93.101562 156.707031 C 93.101562 153.03125 91.628906 149.425781 89.058594 146.820312 C 86.449219 144.175781 82.964844 142.71875 79.25 142.71875 C 75.535156 142.71875 72.050781 144.175781 69.441406 146.820312 C 66.875 149.425781 65.398438 153.03125 65.398438 156.707031 C 65.398438 157.917969 65.546875 159.136719 65.828125 160.230469 C 65.957031 160.730469 66.40625 161.0625 66.898438 161.0625 C 66.988281 161.0625 67.085938 161.050781 67.175781 161.027344 C 67.765625 160.871094 68.125 160.269531 67.972656 159.675781 C 67.734375 158.761719 67.613281 157.734375 67.613281 156.707031 C 67.613281 153.613281 68.851562 150.578125 71.015625 148.382812 C 73.207031 146.160156 76.132812 144.9375 79.25 144.9375 " fill-opacity="1" fill-rule="nonzero"/><path stroke-linecap="butt" transform="matrix(0.75, 0, 0, 0.75, 129.592818, 173.919788)" fill="none" stroke-linejoin="miter" d="M 37.022079 22.299659 C 35.829371 20.992368 34.537704 19.992368 33.162704 19.299659 C 31.792912 18.601743 29.813745 18.252784 27.214787 18.252784 C 24.615828 18.252784 22.688745 18.632993 21.428328 19.388201 C 20.183536 20.132993 19.563744 21.028826 19.563744 22.080909 C 19.563744 23.872576 21.162703 25.14341 24.36062 25.888201 L 36.803329 29.127785 C 41.355413 30.273618 44.777288 32.284035 47.068955 35.164244 C 49.376246 38.034035 50.527288 41.466327 50.527288 45.466328 C 50.527288 49.164245 49.55333 52.382995 47.600205 55.132995 C 45.64708 57.877787 42.860621 59.997579 39.235621 61.497579 C 35.615829 62.997579 31.381454 63.752787 26.537703 63.752787 C 21.032495 63.752787 16.016869 62.841329 11.490827 61.02362 C 6.98041 59.195495 3.850202 56.799662 2.10541 53.851745 C 1.850202 53.351745 1.719993 52.976745 1.719993 52.731953 C 1.719993 52.231953 1.996035 51.784036 2.54291 51.377786 L 10.266869 46.054869 C 10.813744 45.711119 11.313744 45.539244 11.766869 45.539244 C 12.318952 45.539244 12.766869 45.763203 13.121036 46.200703 C 14.818953 48.409036 16.537703 49.966328 18.282494 50.86737 C 20.037703 51.757995 22.365828 52.200703 25.256453 52.200703 C 28.063745 52.200703 30.277287 51.820495 31.897079 51.049661 C 33.522079 50.268411 34.334579 49.205911 34.334579 47.867369 C 34.334579 46.914244 33.928329 46.091328 33.126245 45.393411 C 32.32937 44.685078 31.162704 44.153828 29.61062 43.804869 L 18.209578 41.039244 C 13.719994 39.940286 10.152286 37.877785 7.501244 34.851744 C 4.85541 31.825702 3.532493 28.346535 3.532493 24.403826 C 3.532493 21.148618 4.475202 18.159034 6.371035 15.435076 C 8.272077 12.716325 10.969994 10.570492 14.459577 8.992367 C 17.959578 7.41945 22.011661 6.632992 26.61062 6.632992 C 31.11062 6.632992 35.282496 7.372575 39.126246 8.846534 C 42.969996 10.310075 45.746038 12.268409 47.454371 14.721534 C 47.798121 15.174659 47.964788 15.601742 47.964788 16.002784 C 47.964788 16.346534 47.798121 16.669451 47.454371 16.971534 L 39.272079 22.903826 C 39.027287 23.096534 38.756454 23.195493 38.449162 23.195493 C 38.110621 23.195493 37.631454 22.898618 37.022079 22.299659 Z M 54.64708 9.101742 C 54.64708 8.601742 54.80333 8.195492 55.121038 7.877783 C 55.454372 7.549658 55.917914 7.382992 56.511664 7.382992 L 101.334583 7.382992 C 101.943958 7.382992 102.4075 7.549658 102.725208 7.877783 C 103.053333 8.195492 103.214792 8.601742 103.214792 9.101742 L 103.214792 18.018409 C 103.214792 18.966326 102.667917 19.445493 101.568958 19.445493 L 88.303332 19.445493 C 87.704374 19.445493 87.407499 19.695493 87.407499 20.195493 L 87.407499 61.351745 C 87.407499 61.903829 87.277291 62.315287 87.022082 62.596537 C 86.777291 62.86737 86.428332 62.997579 85.975207 62.997579 L 71.740831 62.997579 C 70.834581 62.997579 70.386665 62.497579 70.386665 61.497579 L 70.386665 20.507993 C 70.386665 19.799659 70.110623 19.445493 69.563748 19.445493 L 56.36583 19.445493 C 55.219997 19.445493 54.64708 18.966326 54.64708 18.018409 Z M 134.626252 63.752787 C 129.173127 63.752787 124.407501 62.591329 120.334584 60.27362 C 116.256459 57.940287 113.121042 54.643412 110.928334 50.372578 C 108.730417 46.101744 107.631459 41.096536 107.631459 35.346535 C 107.631459 29.601743 108.746042 24.570493 110.964792 20.247576 C 113.199167 15.919451 116.345001 12.570492 120.407501 10.2007 C 124.480418 7.8257 129.220002 6.632992 134.626252 6.632992 C 139.970002 6.632992 144.662711 7.8257 148.69917 10.2007 C 152.751253 12.570492 155.88667 15.919451 158.10542 20.247576 C 160.339795 24.570493 161.454379 29.601743 161.454379 35.346535 C 161.454379 41.044452 160.350212 46.039244 158.141879 50.33612 C 155.94917 54.632995 152.82417 57.940287 148.772086 60.27362 C 144.735628 62.591329 140.022086 63.752787 134.626252 63.752787 Z M 134.626252 52.05487 C 136.824169 52.05487 138.568961 51.518411 139.860627 50.445495 C 141.167919 49.372578 142.115836 47.638203 142.714794 45.247578 C 143.313753 42.846536 143.610628 39.617369 143.610628 35.565285 C 143.610628 29.367368 142.912711 24.92466 141.506461 22.226743 C 140.115836 19.528826 137.824169 18.179867 134.626252 18.179867 C 131.371044 18.179867 129.027293 19.528826 127.60021 22.226743 C 126.183543 24.92466 125.47521 29.367368 125.47521 35.565285 C 125.47521 39.617369 125.777293 42.846536 126.371043 45.247578 C 126.970002 47.638203 127.928335 49.372578 129.246043 50.445495 C 130.574168 51.518411 132.371044 52.05487 134.626252 52.05487 Z M 216.313757 60.601745 C 216.412716 60.799662 216.459591 61.070495 216.459591 61.424662 C 216.459591 61.877787 216.318966 62.257995 216.037716 62.560079 C 215.772091 62.851745 215.417924 62.997579 214.980424 62.997579 L 200.42834 62.997579 C 199.381465 62.997579 198.704381 62.476745 198.39709 61.424662 L 191.350214 42.080911 C 191.204381 41.679869 190.954381 41.382994 190.600214 41.185077 C 190.261672 40.992369 189.735631 40.893411 189.027297 40.893411 L 185.584589 40.893411 C 185.282505 40.893411 185.058547 40.992369 184.907505 41.185077 C 184.761672 41.382994 184.688755 41.560077 184.688755 41.716327 L 184.688755 60.820495 C 184.688755 61.627787 184.490839 62.195495 184.084589 62.52362 C 183.683547 62.841329 183.063755 62.997579 182.220005 62.997579 L 169.610629 62.997579 C 168.865838 62.997579 168.355421 62.851745 168.074171 62.560079 C 167.803338 62.257995 167.673129 61.778829 167.673129 61.132995 L 167.673129 9.101742 C 167.673129 7.955908 168.147088 7.382992 169.100213 7.382992 L 194.131464 7.382992 C 201.381465 7.382992 207.001257 8.768409 210.99084 11.539242 C 214.990841 14.310076 216.990841 18.216326 216.990841 23.268409 C 216.990841 26.721535 216.074174 29.794452 214.246049 32.492368 C 212.42834 35.190285 210.074174 37.086119 207.183548 38.185077 C 206.876257 38.341327 206.725215 38.591327 206.725215 38.935077 C 206.725215 39.080911 206.77209 39.304869 206.871048 39.612161 Z M 193.454381 29.711118 C 195.360631 29.711118 196.824173 29.226743 197.850215 28.263201 C 198.871048 27.289243 199.386673 25.971535 199.386673 24.310076 C 199.386673 22.471534 198.77209 21.034034 197.537715 20.013201 C 196.318964 18.987159 194.803339 18.476743 193.001256 18.476743 L 186.412714 18.476743 C 185.761672 18.476743 185.313755 18.591326 185.058547 18.820493 C 184.813755 19.039243 184.688755 19.424659 184.688755 19.976743 L 184.688755 28.138201 C 184.688755 28.685077 184.777297 29.086118 184.943964 29.346535 C 185.115839 29.591327 185.45438 29.711118 185.95438 29.711118 Z M 223.05855 9.101742 C 223.05855 7.955908 223.537716 7.382992 224.490841 7.382992 L 264.970011 7.382992 C 265.860636 7.382992 266.303344 7.909033 266.303344 8.955909 L 266.230427 17.648617 C 266.230427 19.002784 265.584594 19.679868 264.292927 19.679868 L 241.803342 19.679868 C 240.652301 19.679868 240.079384 20.153826 240.079384 21.091326 L 240.079384 27.461118 C 240.079384 27.961118 240.204384 28.351743 240.449176 28.632993 C 240.704384 28.914243 241.032509 29.04966 241.433551 29.04966 L 254.923135 29.04966 C 255.97001 29.04966 256.496052 29.544452 256.496052 30.534035 L 256.496052 39.830911 C 256.496052 40.685077 256.042927 41.112161 255.141885 41.112161 L 241.272092 41.112161 C 240.928342 41.112161 240.641884 41.216327 240.407509 41.424661 C 240.188759 41.617369 240.079384 41.862161 240.079384 42.153827 L 240.079384 49.659036 C 240.079384 50.060078 240.141884 50.33612 240.261676 50.481953 C 240.386676 50.627786 240.621051 50.700703 240.975217 50.700703 L 265.334594 50.700703 C 266.433552 50.700703 266.980427 51.17987 266.980427 52.127786 L 266.980427 61.351745 C 266.980427 61.851745 266.829386 62.257995 266.527302 62.560079 C 266.230427 62.851745 265.787719 62.997579 265.188761 62.997579 L 225.0898 62.997579 C 224.334591 62.997579 223.803341 62.851745 223.501258 62.560079 C 223.209591 62.257995 223.05855 61.778829 223.05855 61.132995 Z M 223.05855 9.101742 " stroke="#145da0" stroke-width="2.811307" stroke-opacity="1" stroke-miterlimit="4"/><g fill="#145da0" fill-opacity="1"><g transform="translate(129.592818, 170.755916)"><g><path d="M 2.828125 -39.140625 C 2.828125 -39.972656 3.171875 -40.390625 3.859375 -40.390625 L 33.265625 -40.390625 C 33.910156 -40.390625 34.234375 -40.007812 34.234375 -39.25 L 34.1875 -32.9375 C 34.1875 -31.957031 33.710938 -31.46875 32.765625 -31.46875 L 16.4375 -31.46875 C 15.601562 -31.46875 15.1875 -31.125 15.1875 -30.4375 L 15.1875 -25.796875 C 15.1875 -25.441406 15.273438 -25.160156 15.453125 -24.953125 C 15.640625 -24.753906 15.878906 -24.65625 16.171875 -24.65625 L 25.96875 -24.65625 C 26.726562 -24.65625 27.109375 -24.296875 27.109375 -23.578125 L 27.109375 -16.828125 C 27.109375 -16.203125 26.78125 -15.890625 26.125 -15.890625 L 16.0625 -15.890625 C 15.800781 -15.890625 15.585938 -15.816406 15.421875 -15.671875 C 15.265625 -15.523438 15.1875 -15.347656 15.1875 -15.140625 L 15.1875 -9.6875 C 15.1875 -9.394531 15.226562 -9.191406 15.3125 -9.078125 C 15.40625 -8.972656 15.582031 -8.921875 15.84375 -8.921875 L 33.53125 -8.921875 C 34.332031 -8.921875 34.734375 -8.578125 34.734375 -7.890625 L 34.734375 -1.203125 C 34.734375 -0.835938 34.625 -0.546875 34.40625 -0.328125 C 34.1875 -0.109375 33.859375 0 33.421875 0 L 4.296875 0 C 3.753906 0 3.375 -0.109375 3.15625 -0.328125 C 2.9375 -0.546875 2.828125 -0.890625 2.828125 -1.359375 Z M 2.828125 -39.140625 "/></g></g></g><g fill="#145da0" fill-opacity="1"><g transform="translate(166.11779, 170.755916)"><g><path d="M 2.828125 -39.140625 C 2.828125 -39.535156 2.914062 -39.84375 3.09375 -40.0625 C 3.28125 -40.28125 3.535156 -40.390625 3.859375 -40.390625 L 14.203125 -40.390625 C 14.859375 -40.390625 15.1875 -40.007812 15.1875 -39.25 L 15.1875 -9.6875 C 15.1875 -9.394531 15.226562 -9.191406 15.3125 -9.078125 C 15.40625 -8.972656 15.582031 -8.921875 15.84375 -8.921875 L 32.234375 -8.921875 C 33.066406 -8.921875 33.484375 -8.578125 33.484375 -7.890625 L 33.484375 -1.203125 C 33.484375 -0.835938 33.363281 -0.546875 33.125 -0.328125 C 32.882812 -0.109375 32.550781 0 32.125 0 L 4.296875 0 C 3.753906 0 3.375 -0.109375 3.15625 -0.328125 C 2.9375 -0.546875 2.828125 -0.890625 2.828125 -1.359375 Z M 2.828125 -39.140625 "/></g></g></g><g fill="#145da0" fill-opacity="1"><g transform="translate(201.118615, 170.755916)"><g><path d="M 2.828125 -39.140625 C 2.828125 -39.972656 3.171875 -40.390625 3.859375 -40.390625 L 33.265625 -40.390625 C 33.910156 -40.390625 34.234375 -40.007812 34.234375 -39.25 L 34.1875 -32.9375 C 34.1875 -31.957031 33.710938 -31.46875 32.765625 -31.46875 L 16.4375 -31.46875 C 15.601562 -31.46875 15.1875 -31.125 15.1875 -30.4375 L 15.1875 -25.796875 C 15.1875 -25.441406 15.273438 -25.160156 15.453125 -24.953125 C 15.640625 -24.753906 15.878906 -24.65625 16.171875 -24.65625 L 25.96875 -24.65625 C 26.726562 -24.65625 27.109375 -24.296875 27.109375 -23.578125 L 27.109375 -16.828125 C 27.109375 -16.203125 26.78125 -15.890625 26.125 -15.890625 L 16.0625 -15.890625 C 15.800781 -15.890625 15.585938 -15.816406 15.421875 -15.671875 C 15.265625 -15.523438 15.1875 -15.347656 15.1875 -15.140625 L 15.1875 -9.6875 C 15.1875 -9.394531 15.226562 -9.191406 15.3125 -9.078125 C 15.40625 -8.972656 15.582031 -8.921875 15.84375 -8.921875 L 33.53125 -8.921875 C 34.332031 -8.921875 34.734375 -8.578125 34.734375 -7.890625 L 34.734375 -1.203125 C 34.734375 -0.835938 34.625 -0.546875 34.40625 -0.328125 C 34.1875 -0.109375 33.859375 0 33.421875 0 L 4.296875 0 C 3.753906 0 3.375 -0.109375 3.15625 -0.328125 C 2.9375 -0.546875 2.828125 -0.890625 2.828125 -1.359375 Z M 2.828125 -39.140625 "/></g></g></g><g fill="#145da0" fill-opacity="1"><g transform="translate(237.643587, 170.755916)"><g><path d="M 20.953125 -40.9375 C 23.972656 -40.9375 26.695312 -40.398438 29.125 -39.328125 C 31.550781 -38.253906 33.546875 -36.773438 35.109375 -34.890625 C 36.671875 -33.003906 37.6875 -30.847656 38.15625 -28.421875 C 38.269531 -27.984375 38.328125 -27.632812 38.328125 -27.375 C 38.328125 -27.050781 38.257812 -26.832031 38.125 -26.71875 C 38 -26.613281 37.773438 -26.546875 37.453125 -26.515625 L 27.921875 -25.90625 C 27.554688 -25.90625 27.320312 -25.96875 27.21875 -26.09375 C 27.113281 -26.226562 27.003906 -26.515625 26.890625 -26.953125 C 26.566406 -28.691406 25.96875 -30.054688 25.09375 -31.046875 C 24.226562 -32.046875 22.957031 -32.546875 21.28125 -32.546875 C 19.144531 -32.546875 17.492188 -31.601562 16.328125 -29.71875 C 15.171875 -27.832031 14.59375 -24.765625 14.59375 -20.515625 C 14.59375 -16.128906 15.125 -13.007812 16.1875 -11.15625 C 17.257812 -9.3125 18.941406 -8.390625 21.234375 -8.390625 C 23.148438 -8.390625 24.789062 -8.878906 26.15625 -9.859375 C 27.519531 -10.835938 28.65625 -12.46875 29.5625 -14.75 C 29.664062 -15.082031 29.972656 -15.25 30.484375 -15.25 C 30.734375 -15.25 30.929688 -15.226562 31.078125 -15.1875 L 37.890625 -13.828125 C 38.429688 -13.648438 38.703125 -13.234375 38.703125 -12.578125 C 38.703125 -11.554688 38.078125 -9.984375 36.828125 -7.859375 C 35.578125 -5.742188 33.617188 -3.8125 30.953125 -2.0625 C 28.285156 -0.320312 24.914062 0.546875 20.84375 0.546875 C 17 0.546875 13.625 -0.367188 10.71875 -2.203125 C 7.820312 -4.035156 5.582031 -6.554688 4 -9.765625 C 2.425781 -12.984375 1.640625 -16.640625 1.640625 -20.734375 C 1.640625 -24.804688 2.425781 -28.363281 4 -31.40625 C 5.582031 -34.457031 7.832031 -36.804688 10.75 -38.453125 C 13.675781 -40.109375 17.078125 -40.9375 20.953125 -40.9375 Z M 20.953125 -40.9375 "/></g></g></g><g fill="#145da0" fill-opacity="1"><g transform="translate(277.76118, 170.755916)"><g><path d="M 1.53125 -39.140625 C 1.53125 -39.503906 1.644531 -39.800781 1.875 -40.03125 C 2.113281 -40.269531 2.453125 -40.390625 2.890625 -40.390625 L 35.4375 -40.390625 C 35.875 -40.390625 36.207031 -40.269531 36.4375 -40.03125 C 36.675781 -39.800781 36.796875 -39.503906 36.796875 -39.140625 L 36.796875 -32.65625 C 36.796875 -31.96875 36.398438 -31.625 35.609375 -31.625 L 25.96875 -31.625 C 25.53125 -31.625 25.3125 -31.441406 25.3125 -31.078125 L 25.3125 -1.203125 C 25.3125 -0.796875 25.21875 -0.492188 25.03125 -0.296875 C 24.851562 -0.0976562 24.601562 0 24.28125 0 L 13.9375 0 C 13.28125 0 12.953125 -0.363281 12.953125 -1.09375 L 12.953125 -30.859375 C 12.953125 -31.367188 12.753906 -31.625 12.359375 -31.625 L 2.78125 -31.625 C 1.945312 -31.625 1.53125 -31.96875 1.53125 -32.65625 Z M 1.53125 -39.140625 "/></g></g></g><g fill="#145da0" fill-opacity="1"><g transform="translate(129.592818, 251.839452)"><g><path d="M 0.984375 -0.59375 C 1.410156 -0.601562 1.710938 -0.695312 1.890625 -0.875 C 2.066406 -1.0625 2.164062 -1.273438 2.1875 -1.515625 C 2.21875 -1.765625 2.234375 -2.195312 2.234375 -2.8125 L 2.234375 -10.59375 C 2.234375 -11.09375 2.25 -11.523438 2.28125 -11.890625 L 0.984375 -11.8125 L 0.984375 -12.609375 L 9.65625 -12.609375 L 9.75 -9.453125 L 9.15625 -9.453125 C 9.15625 -10.441406 8.941406 -11.113281 8.515625 -11.46875 C 8.085938 -11.832031 7.488281 -12.003906 6.71875 -11.984375 L 5.171875 -11.9375 C 4.734375 -11.925781 4.421875 -11.84375 4.234375 -11.6875 C 4.046875 -11.539062 3.925781 -11.332031 3.875 -11.0625 C 3.820312 -10.800781 3.796875 -10.378906 3.796875 -9.796875 L 3.796875 -6.921875 L 7.1875 -6.90625 L 7.0625 -8.453125 L 7.859375 -8.453125 L 7.859375 -4.671875 L 7.265625 -4.671875 C 7.265625 -5.109375 7.207031 -5.441406 7.09375 -5.671875 C 6.988281 -5.910156 6.820312 -6.066406 6.59375 -6.140625 C 6.375 -6.222656 6.066406 -6.265625 5.671875 -6.265625 L 5.109375 -6.25 L 3.796875 -6.203125 L 3.796875 -2.078125 C 3.796875 -1.453125 3.78125 -0.984375 3.75 -0.671875 L 7.1875 -0.71875 C 8.03125 -0.726562 8.671875 -0.941406 9.109375 -1.359375 C 9.554688 -1.773438 9.78125 -2.492188 9.78125 -3.515625 L 10.390625 -3.515625 L 10.28125 0 L 0.984375 0 Z M 0.984375 -0.59375 "/></g></g></g><g fill="#145da0" fill-opacity="1"><g transform="translate(140.796125, 251.839452)"><g><path d="M 0.609375 -0.546875 C 0.960938 -0.546875 1.210938 -0.628906 1.359375 -0.796875 C 1.503906 -0.972656 1.59375 -1.195312 1.625 -1.46875 C 1.65625 -1.738281 1.671875 -2.160156 1.671875 -2.734375 L 1.671875 -11.265625 C 1.671875 -11.710938 1.691406 -12.101562 1.734375 -12.4375 L 0.453125 -12.359375 L 0.453125 -13.109375 C 1.171875 -13.109375 1.679688 -13.148438 1.984375 -13.234375 C 2.296875 -13.328125 2.535156 -13.453125 2.703125 -13.609375 L 3.21875 -13.609375 L 3.25 -1.90625 C 3.25 -1.4375 3.21875 -1.03125 3.15625 -0.6875 L 4.28125 -0.734375 L 4.28125 0 L 0.609375 0 Z M 0.609375 -0.546875 "/></g></g></g><g fill="#145da0" fill-opacity="1"><g transform="translate(145.695317, 251.839452)"><g><path d="M 5.15625 0.28125 C 4.320312 0.28125 3.570312 0.0859375 2.90625 -0.296875 C 2.238281 -0.679688 1.710938 -1.238281 1.328125 -1.96875 C 0.941406 -2.695312 0.75 -3.535156 0.75 -4.484375 C 0.75 -5.328125 0.941406 -6.117188 1.328125 -6.859375 C 1.710938 -7.597656 2.25 -8.1875 2.9375 -8.625 C 3.632812 -9.070312 4.421875 -9.296875 5.296875 -9.296875 C 5.984375 -9.296875 6.601562 -9.144531 7.15625 -8.84375 C 7.707031 -8.539062 8.144531 -8.09375 8.46875 -7.5 C 8.789062 -6.90625 8.953125 -6.175781 8.953125 -5.3125 L 2.609375 -5.203125 C 2.597656 -3.765625 2.832031 -2.640625 3.3125 -1.828125 C 3.800781 -1.023438 4.554688 -0.625 5.578125 -0.625 C 6.128906 -0.625 6.695312 -0.769531 7.28125 -1.0625 C 7.863281 -1.351562 8.3125 -1.707031 8.625 -2.125 L 9.0625 -1.765625 C 8.601562 -1.066406 8.007812 -0.550781 7.28125 -0.21875 C 6.5625 0.113281 5.851562 0.28125 5.15625 0.28125 Z M 7.265625 -5.96875 C 7.265625 -6.6875 7.097656 -7.300781 6.765625 -7.8125 C 6.441406 -8.332031 5.957031 -8.59375 5.3125 -8.59375 C 3.820312 -8.59375 2.941406 -7.71875 2.671875 -5.96875 Z M 7.265625 -5.96875 "/></g></g></g><g fill="#145da0" fill-opacity="1"><g transform="translate(155.457688, 251.839452)"><g><path d="M 5.1875 0.28125 C 4.375 0.28125 3.625 0.0976562 2.9375 -0.265625 C 2.257812 -0.640625 1.722656 -1.175781 1.328125 -1.875 C 0.929688 -2.570312 0.734375 -3.394531 0.734375 -4.34375 C 0.734375 -5.1875 0.9375 -5.988281 1.34375 -6.75 C 1.75 -7.507812 2.304688 -8.125 3.015625 -8.59375 C 3.734375 -9.0625 4.539062 -9.296875 5.4375 -9.296875 C 6.082031 -9.296875 6.65625 -9.191406 7.15625 -8.984375 C 7.664062 -8.785156 8.0625 -8.515625 8.34375 -8.171875 C 8.632812 -7.835938 8.78125 -7.472656 8.78125 -7.078125 C 8.78125 -6.804688 8.703125 -6.578125 8.546875 -6.390625 C 8.390625 -6.210938 8.171875 -6.125 7.890625 -6.125 C 7.628906 -6.125 7.429688 -6.207031 7.296875 -6.375 C 7.160156 -6.550781 7.09375 -6.738281 7.09375 -6.9375 C 7.09375 -7.238281 7.1875 -7.476562 7.375 -7.65625 C 7.238281 -8.03125 6.976562 -8.285156 6.59375 -8.421875 C 6.21875 -8.554688 5.847656 -8.625 5.484375 -8.625 C 4.921875 -8.625 4.421875 -8.472656 3.984375 -8.171875 C 3.546875 -7.878906 3.203125 -7.441406 2.953125 -6.859375 C 2.703125 -6.285156 2.578125 -5.597656 2.578125 -4.796875 C 2.578125 -3.984375 2.703125 -3.265625 2.953125 -2.640625 C 3.210938 -2.023438 3.578125 -1.539062 4.046875 -1.1875 C 4.515625 -0.832031 5.054688 -0.65625 5.671875 -0.65625 C 6.210938 -0.65625 6.742188 -0.800781 7.265625 -1.09375 C 7.785156 -1.382812 8.195312 -1.753906 8.5 -2.203125 L 8.96875 -1.84375 C 8.53125 -1.144531 7.957031 -0.613281 7.25 -0.25 C 6.550781 0.101562 5.863281 0.28125 5.1875 0.28125 Z M 5.1875 0.28125 "/></g></g></g><g fill="#145da0" fill-opacity="1"><g transform="translate(165.03994, 251.839452)"><g><path d="M 4.171875 0.28125 C 2.535156 0.28125 1.722656 -0.820312 1.734375 -3.03125 L 1.765625 -8.25 L 0.375 -8.234375 L 0.375 -9 C 0.957031 -9.019531 1.445312 -9.285156 1.84375 -9.796875 C 2.25 -10.304688 2.546875 -10.882812 2.734375 -11.53125 L 3.34375 -11.53125 L 3.34375 -9 L 6.375 -9 L 6.375 -8.3125 L 3.34375 -8.265625 C 3.332031 -6.429688 3.320312 -5.160156 3.3125 -4.453125 C 3.3125 -3.742188 3.3125 -3.347656 3.3125 -3.265625 C 3.3125 -2.410156 3.410156 -1.773438 3.609375 -1.359375 C 3.816406 -0.941406 4.175781 -0.734375 4.6875 -0.734375 C 5 -0.734375 5.304688 -0.828125 5.609375 -1.015625 C 5.921875 -1.210938 6.1875 -1.476562 6.40625 -1.8125 L 6.90625 -1.421875 C 6.4375 -0.722656 5.972656 -0.265625 5.515625 -0.046875 C 5.054688 0.171875 4.609375 0.28125 4.171875 0.28125 Z M 4.171875 0.28125 "/></g></g></g><g fill="#145da0" fill-opacity="1"><g transform="translate(172.01049, 251.839452)"><g><path d="M 0.796875 -0.546875 C 1.140625 -0.546875 1.382812 -0.628906 1.53125 -0.796875 C 1.6875 -0.972656 1.78125 -1.195312 1.8125 -1.46875 C 1.84375 -1.738281 1.859375 -2.160156 1.859375 -2.734375 L 1.859375 -6.84375 C 1.859375 -7.351562 1.878906 -7.742188 1.921875 -8.015625 L 0.65625 -7.96875 L 0.65625 -8.703125 L 1.203125 -8.703125 C 1.660156 -8.703125 1.988281 -8.738281 2.1875 -8.8125 C 2.394531 -8.894531 2.59375 -9.019531 2.78125 -9.1875 L 3.296875 -9.1875 C 3.347656 -8.71875 3.378906 -8.125 3.390625 -7.40625 C 3.691406 -7.894531 4.117188 -8.332031 4.671875 -8.71875 C 5.234375 -9.101562 5.8125 -9.296875 6.40625 -9.296875 C 6.769531 -9.296875 7.070312 -9.195312 7.3125 -9 C 7.550781 -8.8125 7.671875 -8.53125 7.671875 -8.15625 C 7.671875 -7.96875 7.59375 -7.773438 7.4375 -7.578125 C 7.289062 -7.390625 7.082031 -7.296875 6.8125 -7.296875 C 6.539062 -7.296875 6.320312 -7.394531 6.15625 -7.59375 C 5.988281 -7.789062 5.925781 -8.03125 5.96875 -8.3125 C 5.507812 -8.320312 5.046875 -8.144531 4.578125 -7.78125 C 4.117188 -7.425781 3.726562 -6.945312 3.40625 -6.34375 L 3.421875 -1.90625 C 3.421875 -1.363281 3.394531 -0.957031 3.34375 -0.6875 L 4.484375 -0.734375 L 4.484375 0 L 0.796875 0 Z M 0.796875 -0.546875 "/></g></g></g><g fill="#145da0" fill-opacity="1"><g transform="translate(179.809581, 251.839452)"><g><path d="M 5.265625 0.28125 C 4.429688 0.28125 3.671875 0.0859375 2.984375 -0.296875 C 2.296875 -0.679688 1.75 -1.222656 1.34375 -1.921875 C 0.9375 -2.617188 0.734375 -3.40625 0.734375 -4.28125 C 0.734375 -5.21875 0.929688 -6.066406 1.328125 -6.828125 C 1.722656 -7.597656 2.265625 -8.203125 2.953125 -8.640625 C 3.648438 -9.078125 4.421875 -9.296875 5.265625 -9.296875 C 6.085938 -9.296875 6.847656 -9.09375 7.546875 -8.6875 C 8.242188 -8.289062 8.789062 -7.742188 9.1875 -7.046875 C 9.59375 -6.347656 9.796875 -5.570312 9.796875 -4.71875 C 9.796875 -3.800781 9.59375 -2.957031 9.1875 -2.1875 C 8.789062 -1.425781 8.242188 -0.820312 7.546875 -0.375 C 6.859375 0.0625 6.097656 0.28125 5.265625 0.28125 Z M 5.40625 -0.4375 C 6.28125 -0.4375 6.925781 -0.796875 7.34375 -1.515625 C 7.757812 -2.234375 7.96875 -3.128906 7.96875 -4.203125 C 7.96875 -5.410156 7.738281 -6.445312 7.28125 -7.3125 C 6.832031 -8.175781 6.160156 -8.609375 5.265625 -8.609375 C 4.367188 -8.609375 3.695312 -8.238281 3.25 -7.5 C 2.800781 -6.769531 2.578125 -5.875 2.578125 -4.8125 C 2.578125 -4.039062 2.679688 -3.320312 2.890625 -2.65625 C 3.097656 -1.988281 3.414062 -1.453125 3.84375 -1.046875 C 4.269531 -0.640625 4.789062 -0.4375 5.40625 -0.4375 Z M 5.40625 -0.4375 "/></g></g></g><g fill="#145da0" fill-opacity="1"><g transform="translate(190.346453, 251.839452)"><g><path d="M 0.796875 -0.546875 C 1.140625 -0.546875 1.382812 -0.628906 1.53125 -0.796875 C 1.6875 -0.972656 1.773438 -1.191406 1.796875 -1.453125 C 1.828125 -1.710938 1.847656 -2.140625 1.859375 -2.734375 L 1.875 -6.84375 C 1.875 -7.351562 1.898438 -7.742188 1.953125 -8.015625 L 0.671875 -7.9375 L 0.671875 -8.703125 C 1.378906 -8.703125 1.863281 -8.738281 2.125 -8.8125 C 2.382812 -8.894531 2.609375 -9.019531 2.796875 -9.1875 L 3.3125 -9.1875 C 3.332031 -8.957031 3.359375 -8.59375 3.390625 -8.09375 C 3.796875 -8.445312 4.257812 -8.734375 4.78125 -8.953125 C 5.300781 -9.179688 5.816406 -9.296875 6.328125 -9.296875 C 7.367188 -9.296875 8.128906 -8.96875 8.609375 -8.3125 C 9.085938 -7.65625 9.328125 -6.640625 9.328125 -5.265625 L 9.328125 -1.90625 C 9.328125 -1.363281 9.304688 -0.957031 9.265625 -0.6875 L 10.390625 -0.734375 L 10.390625 0 L 6.71875 0 L 6.71875 -0.546875 C 7.070312 -0.546875 7.320312 -0.628906 7.46875 -0.796875 C 7.613281 -0.972656 7.703125 -1.195312 7.734375 -1.46875 C 7.765625 -1.738281 7.78125 -2.160156 7.78125 -2.734375 L 7.78125 -5.265625 C 7.769531 -6.296875 7.601562 -7.070312 7.28125 -7.59375 C 6.957031 -8.113281 6.445312 -8.375 5.75 -8.375 C 5.3125 -8.375 4.878906 -8.265625 4.453125 -8.046875 C 4.023438 -7.835938 3.675781 -7.554688 3.40625 -7.203125 C 3.414062 -7.078125 3.421875 -6.84375 3.421875 -6.5 L 3.40625 -1.90625 C 3.40625 -1.363281 3.378906 -0.957031 3.328125 -0.6875 L 4.46875 -0.734375 L 4.46875 0 L 0.796875 0 Z M 0.796875 -0.546875 "/></g></g></g><g fill="#145da0" fill-opacity="1"><g transform="translate(201.279588, 251.839452)"><g><path d="M 2.578125 -10.96875 C 2.328125 -10.96875 2.101562 -11.070312 1.90625 -11.28125 C 1.71875 -11.5 1.625 -11.75 1.625 -12.03125 C 1.625 -12.320312 1.722656 -12.570312 1.921875 -12.78125 C 2.117188 -13 2.34375 -13.109375 2.59375 -13.109375 C 2.875 -13.109375 3.101562 -13.003906 3.28125 -12.796875 C 3.46875 -12.585938 3.5625 -12.332031 3.5625 -12.03125 C 3.5625 -11.75 3.460938 -11.5 3.265625 -11.28125 C 3.066406 -11.070312 2.835938 -10.96875 2.578125 -10.96875 Z M 0.796875 -0.546875 C 1.140625 -0.546875 1.382812 -0.628906 1.53125 -0.796875 C 1.6875 -0.972656 1.78125 -1.195312 1.8125 -1.46875 C 1.84375 -1.738281 1.859375 -2.160156 1.859375 -2.734375 L 1.859375 -6.84375 C 1.859375 -7.195312 1.878906 -7.585938 1.921875 -8.015625 L 0.65625 -7.9375 L 0.65625 -8.703125 C 1.363281 -8.703125 1.867188 -8.742188 2.171875 -8.828125 C 2.472656 -8.910156 2.707031 -9.03125 2.875 -9.1875 L 3.40625 -9.1875 L 3.40625 -1.90625 C 3.40625 -1.363281 3.378906 -0.957031 3.328125 -0.6875 L 4.46875 -0.734375 L 4.46875 0 L 0.796875 0 Z M 0.796875 -0.546875 "/></g></g></g><g fill="#145da0" fill-opacity="1"><g transform="translate(206.340886, 251.839452)"><g><path d="M 4.484375 0.28125 C 3.921875 0.28125 3.40625 0.207031 2.9375 0.0625 C 2.46875 -0.0820312 2.066406 -0.269531 1.734375 -0.5 L 1.796875 0.125 L 1.046875 0.125 L 0.9375 -2.96875 L 1.5 -2.96875 C 1.519531 -2.476562 1.648438 -2.039062 1.890625 -1.65625 C 2.140625 -1.269531 2.46875 -0.96875 2.875 -0.75 C 3.28125 -0.53125 3.707031 -0.421875 4.15625 -0.421875 C 4.675781 -0.421875 5.132812 -0.539062 5.53125 -0.78125 C 5.9375 -1.03125 6.140625 -1.382812 6.140625 -1.84375 C 6.140625 -2.175781 6.039062 -2.457031 5.84375 -2.6875 C 5.644531 -2.914062 5.398438 -3.101562 5.109375 -3.25 C 4.816406 -3.40625 4.40625 -3.582031 3.875 -3.78125 C 3.238281 -4.019531 2.726562 -4.242188 2.34375 -4.453125 C 1.957031 -4.671875 1.625 -4.957031 1.34375 -5.3125 C 1.070312 -5.675781 0.9375 -6.132812 0.9375 -6.6875 C 0.9375 -7.082031 1.03125 -7.476562 1.21875 -7.875 C 1.414062 -8.269531 1.738281 -8.601562 2.1875 -8.875 C 2.644531 -9.15625 3.253906 -9.296875 4.015625 -9.296875 C 4.390625 -9.296875 4.769531 -9.234375 5.15625 -9.109375 C 5.550781 -8.992188 5.914062 -8.796875 6.25 -8.515625 L 6.21875 -9.203125 L 6.96875 -9.203125 L 6.96875 -6.046875 L 6.390625 -6.046875 C 6.359375 -6.742188 6.144531 -7.347656 5.75 -7.859375 C 5.363281 -8.367188 4.816406 -8.625 4.109375 -8.625 C 3.566406 -8.625 3.132812 -8.488281 2.8125 -8.21875 C 2.5 -7.945312 2.34375 -7.628906 2.34375 -7.265625 C 2.34375 -6.910156 2.445312 -6.613281 2.65625 -6.375 C 2.863281 -6.132812 3.125 -5.929688 3.4375 -5.765625 C 3.75 -5.597656 4.171875 -5.410156 4.703125 -5.203125 C 5.328125 -4.953125 5.832031 -4.71875 6.21875 -4.5 C 6.601562 -4.28125 6.929688 -3.992188 7.203125 -3.640625 C 7.472656 -3.285156 7.609375 -2.859375 7.609375 -2.359375 C 7.609375 -1.785156 7.457031 -1.300781 7.15625 -0.90625 C 6.863281 -0.507812 6.476562 -0.210938 6 -0.015625 C 5.53125 0.179688 5.023438 0.28125 4.484375 0.28125 Z M 4.484375 0.28125 "/></g></g></g><g fill="#145da0" fill-opacity="1"><g transform="translate(214.680321, 251.839452)"><g/></g></g><g fill="#145da0" fill-opacity="1"><g transform="translate(219.417408, 251.839452)"><g><path d="M 4.875 0.28125 C 4.132812 0.28125 3.441406 0.160156 2.796875 -0.078125 C 2.160156 -0.328125 1.644531 -0.710938 1.25 -1.234375 C 0.851562 -1.765625 0.65625 -2.4375 0.65625 -3.25 C 0.65625 -4 0.898438 -4.675781 1.390625 -5.28125 C 1.890625 -5.894531 2.585938 -6.394531 3.484375 -6.78125 C 2.992188 -7.382812 2.640625 -7.941406 2.421875 -8.453125 C 2.210938 -8.960938 2.109375 -9.503906 2.109375 -10.078125 C 2.117188 -10.921875 2.429688 -11.601562 3.046875 -12.125 C 3.671875 -12.644531 4.46875 -12.90625 5.4375 -12.90625 C 6.03125 -12.90625 6.550781 -12.789062 7 -12.5625 C 7.457031 -12.34375 7.8125 -12.039062 8.0625 -11.65625 C 8.320312 -11.269531 8.453125 -10.84375 8.453125 -10.375 C 8.453125 -9.675781 8.21875 -9.035156 7.75 -8.453125 C 7.289062 -7.867188 6.539062 -7.316406 5.5 -6.796875 C 5.78125 -6.484375 6.257812 -5.976562 6.9375 -5.28125 C 7.445312 -4.738281 8.078125 -4.117188 8.828125 -3.421875 C 8.941406 -3.828125 9 -4.210938 9 -4.578125 C 9 -5.054688 8.894531 -5.46875 8.6875 -5.8125 C 8.476562 -6.164062 8.128906 -6.351562 7.640625 -6.375 L 7.640625 -6.96875 L 10.796875 -6.96875 L 10.796875 -6.234375 L 9.296875 -6.3125 C 9.671875 -5.976562 9.859375 -5.4375 9.859375 -4.6875 C 9.859375 -4.082031 9.738281 -3.460938 9.5 -2.828125 L 9.859375 -2.5 C 10.023438 -2.34375 10.203125 -2.179688 10.390625 -2.015625 C 10.910156 -1.546875 11.367188 -1.191406 11.765625 -0.953125 C 12.160156 -0.710938 12.460938 -0.59375 12.671875 -0.59375 L 12.671875 0 L 10.984375 0 C 10.859375 0 10.597656 -0.125 10.203125 -0.375 C 9.804688 -0.625 9.320312 -1 8.75 -1.5 C 7.832031 -0.3125 6.539062 0.28125 4.875 0.28125 Z M 5.09375 -7.21875 C 5.75 -7.65625 6.242188 -8.144531 6.578125 -8.6875 C 6.910156 -9.226562 7.078125 -9.773438 7.078125 -10.328125 C 7.078125 -10.910156 6.921875 -11.390625 6.609375 -11.765625 C 6.304688 -12.140625 5.882812 -12.328125 5.34375 -12.328125 C 4.84375 -12.328125 4.429688 -12.140625 4.109375 -11.765625 C 3.785156 -11.390625 3.625 -10.875 3.625 -10.21875 C 3.625 -9.3125 4.113281 -8.3125 5.09375 -7.21875 Z M 5.28125 -0.609375 C 6.5 -0.609375 7.460938 -1.070312 8.171875 -2 C 7.929688 -2.21875 7.757812 -2.378906 7.65625 -2.484375 L 7.390625 -2.734375 C 7.203125 -2.921875 6.695312 -3.414062 5.875 -4.21875 C 5.050781 -5.03125 4.410156 -5.707031 3.953125 -6.25 C 3.429688 -5.9375 3.050781 -5.519531 2.8125 -5 C 2.570312 -4.476562 2.453125 -3.984375 2.453125 -3.515625 C 2.453125 -2.554688 2.726562 -1.832031 3.28125 -1.34375 C 3.832031 -0.851562 4.5 -0.609375 5.28125 -0.609375 Z M 5.28125 -0.609375 "/></g></g></g><g fill="#145da0" fill-opacity="1"><g transform="translate(231.935573, 251.839452)"><g/></g></g><g fill="#145da0" fill-opacity="1"><g transform="translate(236.67266, 251.839452)"><g><path d="M 3.3125 0.28125 C 2.4375 0.28125 1.765625 0.0820312 1.296875 -0.3125 C 0.835938 -0.707031 0.609375 -1.222656 0.609375 -1.859375 C 0.609375 -2.554688 0.882812 -3.144531 1.4375 -3.625 C 2 -4.101562 2.703125 -4.457031 3.546875 -4.6875 C 4.398438 -4.925781 5.253906 -5.039062 6.109375 -5.03125 L 6.109375 -6.140625 C 6.109375 -6.921875 5.992188 -7.53125 5.765625 -7.96875 C 5.535156 -8.40625 5.050781 -8.625 4.3125 -8.625 C 3.9375 -8.625 3.578125 -8.546875 3.234375 -8.390625 C 2.898438 -8.234375 2.65625 -8 2.5 -7.6875 C 2.65625 -7.519531 2.734375 -7.296875 2.734375 -7.015625 C 2.734375 -6.828125 2.664062 -6.648438 2.53125 -6.484375 C 2.40625 -6.328125 2.21875 -6.25 1.96875 -6.25 C 1.707031 -6.25 1.503906 -6.328125 1.359375 -6.484375 C 1.222656 -6.648438 1.15625 -6.867188 1.15625 -7.140625 C 1.15625 -7.535156 1.304688 -7.894531 1.609375 -8.21875 C 1.921875 -8.550781 2.347656 -8.8125 2.890625 -9 C 3.441406 -9.195312 4.050781 -9.296875 4.71875 -9.296875 C 5.726562 -9.296875 6.472656 -9.023438 6.953125 -8.484375 C 7.429688 -7.953125 7.664062 -7.113281 7.65625 -5.96875 L 7.640625 -1.90625 C 7.640625 -1.519531 7.613281 -1.113281 7.5625 -0.6875 L 8.84375 -0.75 L 8.84375 0 L 6.265625 0 C 6.234375 -0.175781 6.191406 -0.519531 6.140625 -1.03125 C 5.265625 -0.15625 4.320312 0.28125 3.3125 0.28125 Z M 3.734375 -0.734375 C 4.179688 -0.734375 4.59375 -0.820312 4.96875 -1 C 5.34375 -1.175781 5.722656 -1.441406 6.109375 -1.796875 C 6.097656 -1.984375 6.09375 -2.289062 6.09375 -2.71875 L 6.109375 -4.40625 C 5.117188 -4.375 4.238281 -4.175781 3.46875 -3.8125 C 2.707031 -3.445312 2.328125 -2.882812 2.328125 -2.125 C 2.328125 -1.675781 2.457031 -1.332031 2.71875 -1.09375 C 2.976562 -0.851562 3.316406 -0.734375 3.734375 -0.734375 Z M 3.734375 -0.734375 "/></g></g></g><g fill="#145da0" fill-opacity="1"><g transform="translate(245.966727, 251.839452)"><g><path d="M 5.1875 0.28125 C 4.375 0.28125 3.625 0.0976562 2.9375 -0.265625 C 2.257812 -0.640625 1.722656 -1.175781 1.328125 -1.875 C 0.929688 -2.570312 0.734375 -3.394531 0.734375 -4.34375 C 0.734375 -5.1875 0.9375 -5.988281 1.34375 -6.75 C 1.75 -7.507812 2.304688 -8.125 3.015625 -8.59375 C 3.734375 -9.0625 4.539062 -9.296875 5.4375 -9.296875 C 6.082031 -9.296875 6.65625 -9.191406 7.15625 -8.984375 C 7.664062 -8.785156 8.0625 -8.515625 8.34375 -8.171875 C 8.632812 -7.835938 8.78125 -7.472656 8.78125 -7.078125 C 8.78125 -6.804688 8.703125 -6.578125 8.546875 -6.390625 C 8.390625 -6.210938 8.171875 -6.125 7.890625 -6.125 C 7.628906 -6.125 7.429688 -6.207031 7.296875 -6.375 C 7.160156 -6.550781 7.09375 -6.738281 7.09375 -6.9375 C 7.09375 -7.238281 7.1875 -7.476562 7.375 -7.65625 C 7.238281 -8.03125 6.976562 -8.285156 6.59375 -8.421875 C 6.21875 -8.554688 5.847656 -8.625 5.484375 -8.625 C 4.921875 -8.625 4.421875 -8.472656 3.984375 -8.171875 C 3.546875 -7.878906 3.203125 -7.441406 2.953125 -6.859375 C 2.703125 -6.285156 2.578125 -5.597656 2.578125 -4.796875 C 2.578125 -3.984375 2.703125 -3.265625 2.953125 -2.640625 C 3.210938 -2.023438 3.578125 -1.539062 4.046875 -1.1875 C 4.515625 -0.832031 5.054688 -0.65625 5.671875 -0.65625 C 6.210938 -0.65625 6.742188 -0.800781 7.265625 -1.09375 C 7.785156 -1.382812 8.195312 -1.753906 8.5 -2.203125 L 8.96875 -1.84375 C 8.53125 -1.144531 7.957031 -0.613281 7.25 -0.25 C 6.550781 0.101562 5.863281 0.28125 5.1875 0.28125 Z M 5.1875 0.28125 "/></g></g></g><g fill="#145da0" fill-opacity="1"><g transform="translate(255.548978, 251.839452)"><g><path d="M 5.1875 0.28125 C 4.375 0.28125 3.625 0.0976562 2.9375 -0.265625 C 2.257812 -0.640625 1.722656 -1.175781 1.328125 -1.875 C 0.929688 -2.570312 0.734375 -3.394531 0.734375 -4.34375 C 0.734375 -5.1875 0.9375 -5.988281 1.34375 -6.75 C 1.75 -7.507812 2.304688 -8.125 3.015625 -8.59375 C 3.734375 -9.0625 4.539062 -9.296875 5.4375 -9.296875 C 6.082031 -9.296875 6.65625 -9.191406 7.15625 -8.984375 C 7.664062 -8.785156 8.0625 -8.515625 8.34375 -8.171875 C 8.632812 -7.835938 8.78125 -7.472656 8.78125 -7.078125 C 8.78125 -6.804688 8.703125 -6.578125 8.546875 -6.390625 C 8.390625 -6.210938 8.171875 -6.125 7.890625 -6.125 C 7.628906 -6.125 7.429688 -6.207031 7.296875 -6.375 C 7.160156 -6.550781 7.09375 -6.738281 7.09375 -6.9375 C 7.09375 -7.238281 7.1875 -7.476562 7.375 -7.65625 C 7.238281 -8.03125 6.976562 -8.285156 6.59375 -8.421875 C 6.21875 -8.554688 5.847656 -8.625 5.484375 -8.625 C 4.921875 -8.625 4.421875 -8.472656 3.984375 -8.171875 C 3.546875 -7.878906 3.203125 -7.441406 2.953125 -6.859375 C 2.703125 -6.285156 2.578125 -5.597656 2.578125 -4.796875 C 2.578125 -3.984375 2.703125 -3.265625 2.953125 -2.640625 C 3.210938 -2.023438 3.578125 -1.539062 4.046875 -1.1875 C 4.515625 -0.832031 5.054688 -0.65625 5.671875 -0.65625 C 6.210938 -0.65625 6.742188 -0.800781 7.265625 -1.09375 C 7.785156 -1.382812 8.195312 -1.753906 8.5 -2.203125 L 8.96875 -1.84375 C 8.53125 -1.144531 7.957031 -0.613281 7.25 -0.25 C 6.550781 0.101562 5.863281 0.28125 5.1875 0.28125 Z M 5.1875 0.28125 "/></g></g></g><g fill="#145da0" fill-opacity="1"><g transform="translate(265.13123, 251.839452)"><g><path d="M 5.15625 0.28125 C 4.320312 0.28125 3.570312 0.0859375 2.90625 -0.296875 C 2.238281 -0.679688 1.710938 -1.238281 1.328125 -1.96875 C 0.941406 -2.695312 0.75 -3.535156 0.75 -4.484375 C 0.75 -5.328125 0.941406 -6.117188 1.328125 -6.859375 C 1.710938 -7.597656 2.25 -8.1875 2.9375 -8.625 C 3.632812 -9.070312 4.421875 -9.296875 5.296875 -9.296875 C 5.984375 -9.296875 6.601562 -9.144531 7.15625 -8.84375 C 7.707031 -8.539062 8.144531 -8.09375 8.46875 -7.5 C 8.789062 -6.90625 8.953125 -6.175781 8.953125 -5.3125 L 2.609375 -5.203125 C 2.597656 -3.765625 2.832031 -2.640625 3.3125 -1.828125 C 3.800781 -1.023438 4.554688 -0.625 5.578125 -0.625 C 6.128906 -0.625 6.695312 -0.769531 7.28125 -1.0625 C 7.863281 -1.351562 8.3125 -1.707031 8.625 -2.125 L 9.0625 -1.765625 C 8.601562 -1.066406 8.007812 -0.550781 7.28125 -0.21875 C 6.5625 0.113281 5.851562 0.28125 5.15625 0.28125 Z M 7.265625 -5.96875 C 7.265625 -6.6875 7.097656 -7.300781 6.765625 -7.8125 C 6.441406 -8.332031 5.957031 -8.59375 5.3125 -8.59375 C 3.820312 -8.59375 2.941406 -7.71875 2.671875 -5.96875 Z M 7.265625 -5.96875 "/></g></g></g><g fill="#145da0" fill-opacity="1"><g transform="translate(274.893601, 251.839452)"><g><path d="M 4.484375 0.28125 C 3.921875 0.28125 3.40625 0.207031 2.9375 0.0625 C 2.46875 -0.0820312 2.066406 -0.269531 1.734375 -0.5 L 1.796875 0.125 L 1.046875 0.125 L 0.9375 -2.96875 L 1.5 -2.96875 C 1.519531 -2.476562 1.648438 -2.039062 1.890625 -1.65625 C 2.140625 -1.269531 2.46875 -0.96875 2.875 -0.75 C 3.28125 -0.53125 3.707031 -0.421875 4.15625 -0.421875 C 4.675781 -0.421875 5.132812 -0.539062 5.53125 -0.78125 C 5.9375 -1.03125 6.140625 -1.382812 6.140625 -1.84375 C 6.140625 -2.175781 6.039062 -2.457031 5.84375 -2.6875 C 5.644531 -2.914062 5.398438 -3.101562 5.109375 -3.25 C 4.816406 -3.40625 4.40625 -3.582031 3.875 -3.78125 C 3.238281 -4.019531 2.726562 -4.242188 2.34375 -4.453125 C 1.957031 -4.671875 1.625 -4.957031 1.34375 -5.3125 C 1.070312 -5.675781 0.9375 -6.132812 0.9375 -6.6875 C 0.9375 -7.082031 1.03125 -7.476562 1.21875 -7.875 C 1.414062 -8.269531 1.738281 -8.601562 2.1875 -8.875 C 2.644531 -9.15625 3.253906 -9.296875 4.015625 -9.296875 C 4.390625 -9.296875 4.769531 -9.234375 5.15625 -9.109375 C 5.550781 -8.992188 5.914062 -8.796875 6.25 -8.515625 L 6.21875 -9.203125 L 6.96875 -9.203125 L 6.96875 -6.046875 L 6.390625 -6.046875 C 6.359375 -6.742188 6.144531 -7.347656 5.75 -7.859375 C 5.363281 -8.367188 4.816406 -8.625 4.109375 -8.625 C 3.566406 -8.625 3.132812 -8.488281 2.8125 -8.21875 C 2.5 -7.945312 2.34375 -7.628906 2.34375 -7.265625 C 2.34375 -6.910156 2.445312 -6.613281 2.65625 -6.375 C 2.863281 -6.132812 3.125 -5.929688 3.4375 -5.765625 C 3.75 -5.597656 4.171875 -5.410156 4.703125 -5.203125 C 5.328125 -4.953125 5.832031 -4.71875 6.21875 -4.5 C 6.601562 -4.28125 6.929688 -3.992188 7.203125 -3.640625 C 7.472656 -3.285156 7.609375 -2.859375 7.609375 -2.359375 C 7.609375 -1.785156 7.457031 -1.300781 7.15625 -0.90625 C 6.863281 -0.507812 6.476562 -0.210938 6 -0.015625 C 5.53125 0.179688 5.023438 0.28125 4.484375 0.28125 Z M 4.484375 0.28125 "/></g></g></g><g fill="#145da0" fill-opacity="1"><g transform="translate(283.233036, 251.839452)"><g><path d="M 5.265625 0.28125 C 4.429688 0.28125 3.671875 0.0859375 2.984375 -0.296875 C 2.296875 -0.679688 1.75 -1.222656 1.34375 -1.921875 C 0.9375 -2.617188 0.734375 -3.40625 0.734375 -4.28125 C 0.734375 -5.21875 0.929688 -6.066406 1.328125 -6.828125 C 1.722656 -7.597656 2.265625 -8.203125 2.953125 -8.640625 C 3.648438 -9.078125 4.421875 -9.296875 5.265625 -9.296875 C 6.085938 -9.296875 6.847656 -9.09375 7.546875 -8.6875 C 8.242188 -8.289062 8.789062 -7.742188 9.1875 -7.046875 C 9.59375 -6.347656 9.796875 -5.570312 9.796875 -4.71875 C 9.796875 -3.800781 9.59375 -2.957031 9.1875 -2.1875 C 8.789062 -1.425781 8.242188 -0.820312 7.546875 -0.375 C 6.859375 0.0625 6.097656 0.28125 5.265625 0.28125 Z M 5.40625 -0.4375 C 6.28125 -0.4375 6.925781 -0.796875 7.34375 -1.515625 C 7.757812 -2.234375 7.96875 -3.128906 7.96875 -4.203125 C 7.96875 -5.410156 7.738281 -6.445312 7.28125 -7.3125 C 6.832031 -8.175781 6.160156 -8.609375 5.265625 -8.609375 C 4.367188 -8.609375 3.695312 -8.238281 3.25 -7.5 C 2.800781 -6.769531 2.578125 -5.875 2.578125 -4.8125 C 2.578125 -4.039062 2.679688 -3.320312 2.890625 -2.65625 C 3.097656 -1.988281 3.414062 -1.453125 3.84375 -1.046875 C 4.269531 -0.640625 4.789062 -0.4375 5.40625 -0.4375 Z M 5.40625 -0.4375 "/></g></g></g><g fill="#145da0" fill-opacity="1"><g transform="translate(293.769908, 251.839452)"><g><path d="M 0.796875 -0.546875 C 1.140625 -0.546875 1.382812 -0.628906 1.53125 -0.796875 C 1.6875 -0.972656 1.78125 -1.195312 1.8125 -1.46875 C 1.84375 -1.738281 1.859375 -2.160156 1.859375 -2.734375 L 1.859375 -6.84375 C 1.859375 -7.351562 1.878906 -7.742188 1.921875 -8.015625 L 0.65625 -7.96875 L 0.65625 -8.703125 L 1.203125 -8.703125 C 1.660156 -8.703125 1.988281 -8.738281 2.1875 -8.8125 C 2.394531 -8.894531 2.59375 -9.019531 2.78125 -9.1875 L 3.296875 -9.1875 C 3.347656 -8.71875 3.378906 -8.125 3.390625 -7.40625 C 3.691406 -7.894531 4.117188 -8.332031 4.671875 -8.71875 C 5.234375 -9.101562 5.8125 -9.296875 6.40625 -9.296875 C 6.769531 -9.296875 7.070312 -9.195312 7.3125 -9 C 7.550781 -8.8125 7.671875 -8.53125 7.671875 -8.15625 C 7.671875 -7.96875 7.59375 -7.773438 7.4375 -7.578125 C 7.289062 -7.390625 7.082031 -7.296875 6.8125 -7.296875 C 6.539062 -7.296875 6.320312 -7.394531 6.15625 -7.59375 C 5.988281 -7.789062 5.925781 -8.03125 5.96875 -8.3125 C 5.507812 -8.320312 5.046875 -8.144531 4.578125 -7.78125 C 4.117188 -7.425781 3.726562 -6.945312 3.40625 -6.34375 L 3.421875 -1.90625 C 3.421875 -1.363281 3.394531 -0.957031 3.34375 -0.6875 L 4.484375 -0.734375 L 4.484375 0 L 0.796875 0 Z M 0.796875 -0.546875 "/></g></g></g><g fill="#145da0" fill-opacity="1"><g transform="translate(301.568999, 251.839452)"><g><path d="M 2.578125 -10.96875 C 2.328125 -10.96875 2.101562 -11.070312 1.90625 -11.28125 C 1.71875 -11.5 1.625 -11.75 1.625 -12.03125 C 1.625 -12.320312 1.722656 -12.570312 1.921875 -12.78125 C 2.117188 -13 2.34375 -13.109375 2.59375 -13.109375 C 2.875 -13.109375 3.101562 -13.003906 3.28125 -12.796875 C 3.46875 -12.585938 3.5625 -12.332031 3.5625 -12.03125 C 3.5625 -11.75 3.460938 -11.5 3.265625 -11.28125 C 3.066406 -11.070312 2.835938 -10.96875 2.578125 -10.96875 Z M 0.796875 -0.546875 C 1.140625 -0.546875 1.382812 -0.628906 1.53125 -0.796875 C 1.6875 -0.972656 1.78125 -1.195312 1.8125 -1.46875 C 1.84375 -1.738281 1.859375 -2.160156 1.859375 -2.734375 L 1.859375 -6.84375 C 1.859375 -7.195312 1.878906 -7.585938 1.921875 -8.015625 L 0.65625 -7.9375 L 0.65625 -8.703125 C 1.363281 -8.703125 1.867188 -8.742188 2.171875 -8.828125 C 2.472656 -8.910156 2.707031 -9.03125 2.875 -9.1875 L 3.40625 -9.1875 L 3.40625 -1.90625 C 3.40625 -1.363281 3.378906 -0.957031 3.328125 -0.6875 L 4.46875 -0.734375 L 4.46875 0 L 0.796875 0 Z M 0.796875 -0.546875 "/></g></g></g><g fill="#145da0" fill-opacity="1"><g transform="translate(306.630297, 251.839452)"><g><path d="M 5.15625 0.28125 C 4.320312 0.28125 3.570312 0.0859375 2.90625 -0.296875 C 2.238281 -0.679688 1.710938 -1.238281 1.328125 -1.96875 C 0.941406 -2.695312 0.75 -3.535156 0.75 -4.484375 C 0.75 -5.328125 0.941406 -6.117188 1.328125 -6.859375 C 1.710938 -7.597656 2.25 -8.1875 2.9375 -8.625 C 3.632812 -9.070312 4.421875 -9.296875 5.296875 -9.296875 C 5.984375 -9.296875 6.601562 -9.144531 7.15625 -8.84375 C 7.707031 -8.539062 8.144531 -8.09375 8.46875 -7.5 C 8.789062 -6.90625 8.953125 -6.175781 8.953125 -5.3125 L 2.609375 -5.203125 C 2.597656 -3.765625 2.832031 -2.640625 3.3125 -1.828125 C 3.800781 -1.023438 4.554688 -0.625 5.578125 -0.625 C 6.128906 -0.625 6.695312 -0.769531 7.28125 -1.0625 C 7.863281 -1.351562 8.3125 -1.707031 8.625 -2.125 L 9.0625 -1.765625 C 8.601562 -1.066406 8.007812 -0.550781 7.28125 -0.21875 C 6.5625 0.113281 5.851562 0.28125 5.15625 0.28125 Z M 7.265625 -5.96875 C 7.265625 -6.6875 7.097656 -7.300781 6.765625 -7.8125 C 6.441406 -8.332031 5.957031 -8.59375 5.3125 -8.59375 C 3.820312 -8.59375 2.941406 -7.71875 2.671875 -5.96875 Z M 7.265625 -5.96875 "/></g></g></g><g fill="#145da0" fill-opacity="1"><g transform="translate(316.392667, 251.839452)"><g><path d="M 4.484375 0.28125 C 3.921875 0.28125 3.40625 0.207031 2.9375 0.0625 C 2.46875 -0.0820312 2.066406 -0.269531 1.734375 -0.5 L 1.796875 0.125 L 1.046875 0.125 L 0.9375 -2.96875 L 1.5 -2.96875 C 1.519531 -2.476562 1.648438 -2.039062 1.890625 -1.65625 C 2.140625 -1.269531 2.46875 -0.96875 2.875 -0.75 C 3.28125 -0.53125 3.707031 -0.421875 4.15625 -0.421875 C 4.675781 -0.421875 5.132812 -0.539062 5.53125 -0.78125 C 5.9375 -1.03125 6.140625 -1.382812 6.140625 -1.84375 C 6.140625 -2.175781 6.039062 -2.457031 5.84375 -2.6875 C 5.644531 -2.914062 5.398438 -3.101562 5.109375 -3.25 C 4.816406 -3.40625 4.40625 -3.582031 3.875 -3.78125 C 3.238281 -4.019531 2.726562 -4.242188 2.34375 -4.453125 C 1.957031 -4.671875 1.625 -4.957031 1.34375 -5.3125 C 1.070312 -5.675781 0.9375 -6.132812 0.9375 -6.6875 C 0.9375 -7.082031 1.03125 -7.476562 1.21875 -7.875 C 1.414062 -8.269531 1.738281 -8.601562 2.1875 -8.875 C 2.644531 -9.15625 3.253906 -9.296875 4.015625 -9.296875 C 4.390625 -9.296875 4.769531 -9.234375 5.15625 -9.109375 C 5.550781 -8.992188 5.914062 -8.796875 6.25 -8.515625 L 6.21875 -9.203125 L 6.96875 -9.203125 L 6.96875 -6.046875 L 6.390625 -6.046875 C 6.359375 -6.742188 6.144531 -7.347656 5.75 -7.859375 C 5.363281 -8.367188 4.816406 -8.625 4.109375 -8.625 C 3.566406 -8.625 3.132812 -8.488281 2.8125 -8.21875 C 2.5 -7.945312 2.34375 -7.628906 2.34375 -7.265625 C 2.34375 -6.910156 2.445312 -6.613281 2.65625 -6.375 C 2.863281 -6.132812 3.125 -5.929688 3.4375 -5.765625 C 3.75 -5.597656 4.171875 -5.410156 4.703125 -5.203125 C 5.328125 -4.953125 5.832031 -4.71875 6.21875 -4.5 C 6.601562 -4.28125 6.929688 -3.992188 7.203125 -3.640625 C 7.472656 -3.285156 7.609375 -2.859375 7.609375 -2.359375 C 7.609375 -1.785156 7.457031 -1.300781 7.15625 -0.90625 C 6.863281 -0.507812 6.476562 -0.210938 6 -0.015625 C 5.53125 0.179688 5.023438 0.28125 4.484375 0.28125 Z M 4.484375 0.28125 "/></g></g></g></svg>